<?xml version="1.0" standalone="no"?><!DOCTYPE svg PUBLIC "-//W3C//DTD SVG 1.1//EN" "http://www.w3.org/Graphics/SVG/1.1/DTD/svg11.dtd"><svg t="1578415828124" class="icon" viewBox="0 0 1024 1024" version="1.1" xmlns="http://www.w3.org/2000/svg" p-id="3656" xmlns:xlink="http://www.w3.org/1999/xlink" width="200" height="200"><defs><style type="text/css"></style></defs><path d="M996.864 149.504c-0.512-4.096-1.024-8.704-2.56-12.8a46.7456 46.7456 0 0 0-7.68-11.776c-1.024-1.536-1.536-3.072-3.072-4.608h-0.512a47.4112 47.4112 0 0 0-19.456-11.776c-5.632-2.048-10.752-3.072-16.896-3.584H75.776c-28.16 0-51.2 23.04-51.2 51.2v712.704c0 28.16 23.04 51.2 51.2 51.2h870.4c28.16 0 51.2-23.04 51.2-51.2V155.648c1.024-2.048 0-4.096-0.512-6.144z m-176.128 57.344L511.488 507.392 193.536 206.848h627.2zM128 817.152V285.696l348.672 329.728c9.728 9.216 22.528 13.824 35.328 13.824 12.8 0 25.6-4.608 35.84-14.336l348.16-337.92v540.16h-768z" fill="" p-id="3657"></path></svg>